<svg xmlns="http://www.w3.org/2000/svg" viewBox="0 0 1600 1000" preserveAspectRatio="xMidYMid slice">
  <defs>
    <linearGradient id="bgGrad" x1="0" y1="0" x2="0" y2="1">
      <stop offset="0%" stop-color="#0A1929"/>
      <stop offset="100%" stop-color="#050D17"/>
    </linearGradient>
    <linearGradient id="tankFill" x1="0" y1="0" x2="0" y2="1">
      <stop offset="0%" stop-color="#1E88E5" stop-opacity="0.5"/>
      <stop offset="100%" stop-color="#1E88E5" stop-opacity="0.2"/>
    </linearGradient>
    <linearGradient id="barFill" x1="0" y1="1" x2="0" y2="0">
      <stop offset="0%" stop-color="#42A5F5"/>
      <stop offset="100%" stop-color="#90CAF9"/>
    </linearGradient>
  </defs>

  <!-- Background -->
  <rect width="1600" height="1000" fill="url(#bgGrad)"/>

  <!-- Title bar (AVEVA InTouch-style) -->
  <rect x="0" y="0" width="1600" height="36" fill="#0D2840"/>
  <text x="20" y="24" font-family="Consolas, ui-monospace, monospace" font-size="13" fill="#80B4D8" letter-spacing="2">AVEVA</text>
  <text x="68" y="24" font-family="Consolas, ui-monospace, monospace" font-size="13" fill="#FFFFFF" letter-spacing="1">System Platform · WindowViewer</text>
  <text x="1480" y="24" font-family="Consolas, ui-monospace, monospace" font-size="11" fill="#5A7A95">InTouch · v2020 R2</text>

  <!-- Menu bar -->
  <rect x="0" y="36" width="1600" height="28" fill="#102D44"/>
  <g font-family="Segoe UI, system-ui, sans-serif" font-size="11" fill="#B0C8DD">
    <text x="20" y="55">File</text>
    <text x="56" y="55">Edit</text>
    <text x="92" y="55">View</text>
    <text x="134" y="55">Configure</text>
    <text x="200" y="55">Graphics</text>
    <text x="258" y="55">Window</text>
    <text x="310" y="55">Tools</text>
    <text x="352" y="55">Help</text>
  </g>
  <text x="1500" y="55" font-family="Consolas, ui-monospace, monospace" font-size="11" fill="#5A8AAA">● CONNECTED</text>

  <!-- Toolbar -->
  <rect x="0" y="64" width="1600" height="32" fill="#0A1F33" stroke="#1A3450" stroke-width="1"/>
  <g font-family="Segoe UI, system-ui, sans-serif" font-size="10" fill="#7099B8">
    <rect x="14" y="70" width="64" height="20" rx="2" fill="#163652" stroke="#2A5070"/>
    <text x="22" y="84">Runtime</text>
    <rect x="88" y="70" width="56" height="20" rx="2" fill="#163652" stroke="#2A5070"/>
    <text x="98" y="84">Engine</text>
    <rect x="154" y="70" width="60" height="20" rx="2" fill="#163652" stroke="#2A5070"/>
    <text x="162" y="84">Alarm</text>
    <rect x="222" y="70" width="60" height="20" rx="2" fill="#163652" stroke="#2A5070"/>
    <text x="234" y="84">Trends</text>
    <rect x="290" y="70" width="60" height="20" rx="2" fill="#163652" stroke="#2A5070"/>
    <text x="298" y="84">Reports</text>
  </g>

  <!-- Left tree panel -->
  <rect x="0" y="96" width="240" height="878" fill="#0D2138"/>
  <rect x="0" y="96" width="240" height="878" fill="none" stroke="#1A3450" stroke-width="1"/>
  <text x="14" y="120" font-family="Segoe UI, system-ui, sans-serif" font-size="10" font-weight="600" fill="#7099B8" letter-spacing="1">CONFIGURACIÓN</text>

  <g font-family="Segoe UI, system-ui, sans-serif" font-size="11" fill="#B8D0E4">
    <!-- Root -->
    <text x="14" y="148" fill="#80B4D8">▼</text>
    <text x="30" y="148" font-weight="600">Plantas</text>

    <!-- Plant -->
    <text x="30" y="172" fill="#80B4D8">▼</text>
    <text x="46" y="172">Aguas Altiplano</text>

    <!-- Sub-items -->
    <text x="46" y="196" fill="#80B4D8">▼</text>
    <text x="62" y="196">PTAP Iquique</text>
    <g fill="#7099B8" font-size="10">
      <text x="78" y="220">NI-Norte</text>
      <text x="78" y="240">NI-Sur</text>
      <text x="78" y="260">SALA SCADA</text>
    </g>

    <text x="46" y="296" fill="#80B4D8">▼</text>
    <text x="62" y="296">PTAP Calama</text>
    <g fill="#7099B8" font-size="10">
      <text x="78" y="320">NI-01</text>
      <text x="78" y="340">NI-02</text>
    </g>

    <text x="30" y="380" fill="#80B4D8">▶</text>
    <text x="46" y="380">Aguas Chañar</text>

    <text x="30" y="408" fill="#80B4D8">▶</text>
    <text x="46" y="408">Aguas Araucanía</text>

    <text x="30" y="436" fill="#80B4D8">▶</text>
    <text x="46" y="436">Aguas Magallanes</text>

    <text x="14" y="476" fill="#80B4D8">▶</text>
    <text x="30" y="476">Alarmas</text>
    <text x="14" y="500" fill="#80B4D8">▶</text>
    <text x="30" y="500">Históricos</text>
    <text x="14" y="524" fill="#80B4D8">▶</text>
    <text x="30" y="524">Reportes</text>
  </g>

  <text x="14" y="956" font-family="Consolas, ui-monospace, monospace" font-size="9" fill="#5A7A95">OpCenter v2020 · IDE 4.4</text>

  <!-- Main canvas (process graphic area) -->
  <rect x="240" y="96" width="1100" height="770" fill="#091828"/>

  <!-- Process title -->
  <text x="270" y="130" font-family="Segoe UI, system-ui, sans-serif" font-size="11" fill="#5A8AAA" letter-spacing="1">PROCESO · AGUA POTABLE</text>
  <text x="270" y="160" font-family="Segoe UI, system-ui, sans-serif" font-size="20" font-weight="600" fill="#E0F0FF">PTAP IQUIQUE · Sala SCADA</text>
  <text x="270" y="184" font-family="Segoe UI, system-ui, sans-serif" font-size="11" fill="#7099B8">Desalinizadora por ósmosis inversa · Capacidad nominal 600 L/s</text>

  <!-- Process graphic: pumps (left), filters (center), tanks (right), pipes connecting -->
  <g transform="translate(270, 240)">

    <!-- Pump 1 -->
    <g transform="translate(0, 0)">
      <circle cx="50" cy="80" r="36" fill="none" stroke="#42A5F5" stroke-width="2"/>
      <circle cx="50" cy="80" r="22" fill="#163652" stroke="#42A5F5" stroke-width="1.5"/>
      <path d="M 50 80 L 65 95 L 35 95 Z" fill="#42A5F5"/>
      <text x="50" y="148" font-family="Segoe UI, system-ui, sans-serif" font-size="10" fill="#B8D0E4" text-anchor="middle">BBA-01</text>
      <text x="50" y="162" font-family="Consolas, ui-monospace, monospace" font-size="11" fill="#90CAF9" text-anchor="middle">146.2 L/s</text>
      <text x="50" y="176" font-family="Segoe UI, system-ui, sans-serif" font-size="9" fill="#5A8AAA" text-anchor="middle">RUNNING</text>
    </g>

    <!-- Pump 2 -->
    <g transform="translate(0, 200)">
      <circle cx="50" cy="80" r="36" fill="none" stroke="#42A5F5" stroke-width="2"/>
      <circle cx="50" cy="80" r="22" fill="#163652" stroke="#42A5F5" stroke-width="1.5"/>
      <path d="M 50 80 L 65 95 L 35 95 Z" fill="#42A5F5"/>
      <text x="50" y="148" font-family="Segoe UI, system-ui, sans-serif" font-size="10" fill="#B8D0E4" text-anchor="middle">BBA-02</text>
      <text x="50" y="162" font-family="Consolas, ui-monospace, monospace" font-size="11" fill="#90CAF9" text-anchor="middle">138.7 L/s</text>
      <text x="50" y="176" font-family="Segoe UI, system-ui, sans-serif" font-size="9" fill="#5A8AAA" text-anchor="middle">RUNNING</text>
    </g>

    <!-- Pipe between pumps and filter -->
    <line x1="86" y1="80" x2="200" y2="80" stroke="#2A5070" stroke-width="3"/>
    <line x1="86" y1="280" x2="200" y2="280" stroke="#2A5070" stroke-width="3"/>
    <line x1="200" y1="80" x2="200" y2="280" stroke="#2A5070" stroke-width="3"/>

    <!-- Valve -->
    <g transform="translate(190, 175)">
      <polygon points="0,0 20,0 14,14 6,14" fill="none" stroke="#42A5F5" stroke-width="1.5"/>
    </g>

    <!-- Filter tank -->
    <g transform="translate(220, 30)">
      <rect x="0" y="0" width="160" height="300" rx="8" fill="none" stroke="#42A5F5" stroke-width="2"/>
      <rect x="6" y="6" width="148" height="288" rx="6" fill="#0F2438" opacity="0.5"/>
      <rect x="6" y="100" width="148" height="194" fill="url(#tankFill)"/>
      <line x1="6" y1="100" x2="154" y2="100" stroke="#80B4D8" stroke-width="1" stroke-dasharray="3 2"/>
      <text x="80" y="60" font-family="Segoe UI, system-ui, sans-serif" font-size="10" fill="#B8D0E4" text-anchor="middle">FILTRO F-01</text>
      <text x="80" y="200" font-family="Consolas, ui-monospace, monospace" font-size="13" font-weight="600" fill="#E0F0FF" text-anchor="middle">64.8%</text>
      <text x="80" y="218" font-family="Segoe UI, system-ui, sans-serif" font-size="9" fill="#5A8AAA" text-anchor="middle">NIVEL</text>
    </g>

    <!-- Pipe filter → tanks -->
    <line x1="380" y1="180" x2="460" y2="180" stroke="#2A5070" stroke-width="3"/>

    <!-- Storage tanks -->
    <g transform="translate(470, 30)">
      <rect x="0" y="0" width="100" height="300" rx="8" fill="none" stroke="#42A5F5" stroke-width="2"/>
      <rect x="6" y="80" width="88" height="214" fill="url(#tankFill)"/>
      <line x1="6" y1="80" x2="94" y2="80" stroke="#80B4D8" stroke-width="1" stroke-dasharray="3 2"/>
      <text x="50" y="56" font-family="Segoe UI, system-ui, sans-serif" font-size="10" fill="#B8D0E4" text-anchor="middle">ESTANQUE</text>
      <text x="50" y="70" font-family="Segoe UI, system-ui, sans-serif" font-size="10" fill="#B8D0E4" text-anchor="middle">E-01</text>
      <text x="50" y="200" font-family="Consolas, ui-monospace, monospace" font-size="11" fill="#E0F0FF" text-anchor="middle">73.2%</text>
    </g>

    <g transform="translate(590, 30)">
      <rect x="0" y="0" width="100" height="300" rx="8" fill="none" stroke="#42A5F5" stroke-width="2"/>
      <rect x="6" y="40" width="88" height="254" fill="url(#tankFill)"/>
      <line x1="6" y1="40" x2="94" y2="40" stroke="#80B4D8" stroke-width="1" stroke-dasharray="3 2"/>
      <text x="50" y="56" font-family="Segoe UI, system-ui, sans-serif" font-size="10" fill="#B8D0E4" text-anchor="middle">ESTANQUE</text>
      <text x="50" y="70" font-family="Segoe UI, system-ui, sans-serif" font-size="10" fill="#B8D0E4" text-anchor="middle">E-02</text>
      <text x="50" y="180" font-family="Consolas, ui-monospace, monospace" font-size="11" fill="#E0F0FF" text-anchor="middle">86.5%</text>
    </g>

  </g>

  <!-- Right panel: live values + alarm summary -->
  <rect x="1340" y="96" width="260" height="770" fill="#0D2138"/>
  <rect x="1340" y="96" width="260" height="770" fill="none" stroke="#1A3450" stroke-width="1"/>

  <text x="1356" y="120" font-family="Segoe UI, system-ui, sans-serif" font-size="10" font-weight="600" fill="#7099B8" letter-spacing="1">VALORES EN VIVO</text>

  <!-- Sparkline 1 -->
  <g transform="translate(1356, 144)">
    <text font-family="Segoe UI, system-ui, sans-serif" font-size="10" fill="#B8D0E4">Caudal total</text>
    <text x="220" y="0" font-family="Consolas, ui-monospace, monospace" font-size="11" fill="#90CAF9" text-anchor="end">285 L/s</text>
    <rect y="6" width="220" height="48" fill="#0F1F30" stroke="#1A3450"/>
    <polyline fill="none" stroke="#42A5F5" stroke-width="1.5" points="0,30 12,28 24,32 36,26 48,30 60,22 72,28 84,18 96,24 108,20 120,28 132,15 144,22 156,12 168,20 180,18 192,15 204,22"/>
    <line x1="0" y1="40" x2="220" y2="40" stroke="#1A3450" stroke-dasharray="2 3"/>
  </g>

  <!-- Sparkline 2 -->
  <g transform="translate(1356, 220)">
    <text font-family="Segoe UI, system-ui, sans-serif" font-size="10" fill="#B8D0E4">Presión línea</text>
    <text x="220" y="0" font-family="Consolas, ui-monospace, monospace" font-size="11" fill="#90CAF9" text-anchor="end">3.4 bar</text>
    <rect y="6" width="220" height="48" fill="#0F1F30" stroke="#1A3450"/>
    <polyline fill="none" stroke="#66BB6A" stroke-width="1.5" points="0,28 12,26 24,30 36,28 48,24 60,28 72,22 84,26 96,24 108,28 120,22 132,24 144,20 156,24 168,18 180,22 192,20 204,24"/>
  </g>

  <!-- Sparkline 3 -->
  <g transform="translate(1356, 296)">
    <text font-family="Segoe UI, system-ui, sans-serif" font-size="10" fill="#B8D0E4">Conductividad</text>
    <text x="220" y="0" font-family="Consolas, ui-monospace, monospace" font-size="11" fill="#FFA726" text-anchor="end">428 µS</text>
    <rect y="6" width="220" height="48" fill="#0F1F30" stroke="#1A3450"/>
    <polyline fill="none" stroke="#FFA726" stroke-width="1.5" points="0,18 12,20 24,16 36,18 48,22 60,20 72,24 84,22 96,26 108,24 120,28 132,26 144,30 156,28 168,32 180,30 192,34 204,32"/>
  </g>

  <!-- Sparkline 4 -->
  <g transform="translate(1356, 372)">
    <text font-family="Segoe UI, system-ui, sans-serif" font-size="10" fill="#B8D0E4">Nivel estanques</text>
    <text x="220" y="0" font-family="Consolas, ui-monospace, monospace" font-size="11" fill="#90CAF9" text-anchor="end">79.8%</text>
    <rect y="6" width="220" height="48" fill="#0F1F30" stroke="#1A3450"/>
    <rect x="0" y="44" width="220" height="10" fill="#0F1F30"/>
    <rect x="0" y="14" width="175" height="40" fill="url(#barFill)"/>
  </g>

  <!-- Alarm summary -->
  <g transform="translate(1356, 466)">
    <text font-family="Segoe UI, system-ui, sans-serif" font-size="10" font-weight="600" fill="#7099B8" letter-spacing="1">ALARMAS</text>

    <rect y="14" width="228" height="36" rx="2" fill="#1A1010" stroke="#5C2222"/>
    <circle cx="14" cy="32" r="4" fill="#EF5350"/>
    <text x="28" y="30" font-family="Segoe UI, system-ui, sans-serif" font-size="10" font-weight="600" fill="#FF8A80">PRIORITY · 2</text>
    <text x="28" y="42" font-family="Segoe UI, system-ui, sans-serif" font-size="9" fill="#B89090">BBA-01 · Vib. alta</text>

    <rect y="58" width="228" height="36" rx="2" fill="#1A1010" stroke="#5C2222"/>
    <circle cx="14" cy="76" r="4" fill="#FFA726"/>
    <text x="28" y="74" font-family="Segoe UI, system-ui, sans-serif" font-size="10" font-weight="600" fill="#FFCC80">PRIORITY · 8</text>
    <text x="28" y="86" font-family="Segoe UI, system-ui, sans-serif" font-size="9" fill="#B89090">F-01 · Δ presión</text>

    <rect y="102" width="228" height="36" rx="2" fill="#0F1F30" stroke="#2A5070"/>
    <circle cx="14" cy="120" r="4" fill="#42A5F5"/>
    <text x="28" y="118" font-family="Segoe UI, system-ui, sans-serif" font-size="10" font-weight="600" fill="#90CAF9">PRIORITY · 14</text>
    <text x="28" y="130" font-family="Segoe UI, system-ui, sans-serif" font-size="9" fill="#7099B8">E-01 · Nivel alto</text>
  </g>

  <!-- Status bar bottom -->
  <rect x="0" y="866" width="1600" height="134" fill="#070F1A"/>
  <rect x="0" y="866" width="1600" height="1" fill="#1A3450"/>

  <g transform="translate(20, 894)">
    <text font-family="Segoe UI, system-ui, sans-serif" font-size="10" fill="#5A8AAA" letter-spacing="1">TIEMPO REAL · 24 HORAS</text>
    <text y="22" font-family="Segoe UI, system-ui, sans-serif" font-size="20" font-weight="600" fill="#E0F0FF">Caudal diario PTAP Iquique</text>
  </g>

  <!-- Big trend chart at bottom -->
  <g transform="translate(20, 940)">
    <rect width="1560" height="50" fill="#0A1929" stroke="#1A3450"/>
    <g stroke="#1A3450" stroke-width="0.5">
      <line x1="0" y1="12" x2="1560" y2="12"/>
      <line x1="0" y1="25" x2="1560" y2="25"/>
      <line x1="0" y1="38" x2="1560" y2="38"/>
    </g>
    <polyline fill="none" stroke="#42A5F5" stroke-width="2" points="
      0,30 30,28 60,32 90,26 120,30 150,22 180,28 210,18 240,24 270,20 300,28 330,15 360,22 390,12 420,20 450,18 480,15 510,22 540,28 570,25 600,30 630,28 660,32 690,26 720,30 750,22 780,28 810,18 840,24 870,20 900,28 930,15 960,22 990,12 1020,20 1050,18 1080,15 1110,22 1140,28 1170,25 1200,30 1230,28 1260,32 1290,26 1320,30 1350,22 1380,28 1410,18 1440,24 1470,20 1500,28 1530,15 1560,22
    "/>
    <polyline fill="none" stroke="#66BB6A" stroke-width="1.5" stroke-dasharray="4 3" points="
      0,38 1560,38
    "/>
    <text x="0" y="48" font-family="Segoe UI, system-ui, sans-serif" font-size="9" fill="#5A8AAA">00:00</text>
    <text x="780" y="48" font-family="Segoe UI, system-ui, sans-serif" font-size="9" fill="#5A8AAA" text-anchor="middle">12:00</text>
    <text x="1560" y="48" font-family="Segoe UI, system-ui, sans-serif" font-size="9" fill="#5A8AAA" text-anchor="end">23:59</text>
  </g>
</svg>